<?xml version="1.0" encoding="iso-8859-1"?>
<!-- Generator: Adobe Illustrator 19.0.1, SVG Export Plug-In . SVG Version: 6.00 Build 0)  -->
<svg version="1.1" id="Layer_1" xmlns="http://www.w3.org/2000/svg" xmlns:xlink="http://www.w3.org/1999/xlink" x="0px" y="0px"
	 viewBox="0 0 128 128" style="enable-background:new 0 0 128 128;" xml:space="preserve">
<g id="_x32_">
	<path style="fill:#FFFFFF;" d="M119.031,112.076c-5.259,0-6.671-11.333-9.124-53.186c-0.787-13.399-1.73-29.484-3.014-36.229
		c-1.541,6.239-2.934,20.75-3.918,30.994c-2.85,29.699-3.92,34.54-7.634,34.54c-4.228,0-5.386-5.871-6.728-12.669
		c-0.545-2.761-1.417-7.184-2.331-8.631c-0.766,1.439-1.366,5.559-1.741,8.137c-0.973,6.672-1.89,12.973-6.448,12.973
		c-4.156,0-5.378-7.343-8.41-36.279c-0.996-9.505-2.278-21.75-3.597-27.692c-1.616,8.046-3.229,27.657-4.464,42.697
		c-3.452,41.986-4.342,45.343-7.79,45.343c-3.598,0-4.708-4.889-8.489-37.37c-1.107-9.506-2.536-21.784-3.77-27.579
		c-0.449,1.884-0.855,4.331-1.168,6.215c-1.248,7.507-2.233,13.437-6.283,13.437c-3.811,0-4.71-5.103-5.849-11.564
		c-0.457-2.599-1.462-8.297-2.623-9.857c-1.733,3.929-3.102,19.829-4.121,31.662c-2.409,27.961-3.478,35.056-7.686,35.056
		c-3.628,0-5.095-2.524-9.255-52.122C3.205,43.465,1.485,22.944,0,20.476c0.123,0.205,1.335-3.605,1.335-3.605
		c3.349,0,4.13,2.901,7.47,42.729c1.387,16.535,3.214,38.302,5.116,46.039c1.383-5.65,2.519-18.848,3.393-28.982
		c2.471-28.687,3.66-35.906,7.901-35.906c4.807,0,6.038,6.98,7.226,13.729c0.404,2.288,1.03,5.843,1.707,7.466
		c0.85-1.877,1.603-6.41,2.083-9.298c1.185-7.126,2.04-12.275,5.663-12.275c3.296,0,4.154,3.796,7.653,33.843
		c1.183,10.16,2.697,23.161,4.099,29.871c1.3-7.787,2.637-24.042,3.759-37.7c3.719-45.248,4.863-49.515,8.558-49.515
		c3.718,0,4.829,4.825,7.929,34.414c1.238,11.813,2.894,27.615,4.615,31.924c0.809-1.657,1.467-6.184,1.847-8.786
		c0.942-6.474,1.756-12.065,5.889-12.065c4.086,0,5.214,5.723,6.522,12.35c0.472,2.398,1.273,6.447,2.135,8.347
		c1.45-4.671,2.825-19.001,3.862-29.804c2.862-29.823,4.141-37.327,8.328-37.327c3.941,0,4.863,5.589,7.039,42.719
		c1.048,17.858,2.61,44.503,5.255,48.998c1.292-1.106,3.365-6.297,4.447-12.45L128,95.921
		C125.443,110.502,120.877,112.076,119.031,112.076z"/>
</g>
<g id="Layer_1_1_">
</g>
</svg>
